<svg xmlns="http://www.w3.org/2000/svg" xmlns:xlink="http://www.w3.org/1999/xlink" width="1000" zoomAndPan="magnify" viewBox="0 0 750 149.999998" height="200" preserveAspectRatio="xMidYMid meet" version="1.0"><defs><g/><clipPath id="cfa0efe14e"><rect x="0" width="559" y="0" height="94"/></clipPath><clipPath id="80ee6878fd"><path d="M 62 2 L 172 2 L 172 148 L 62 148 Z M 62 2 " clip-rule="nonzero"/></clipPath><clipPath id="4e36985517"><path d="M 134.03125 -7.847656 L 181.25 19.945312 L 100.039062 157.914062 L 52.820312 130.117188 Z M 134.03125 -7.847656 " clip-rule="nonzero"/></clipPath><clipPath id="824afad6bc"><path d="M 157.640625 6.046875 C 163.902344 9.734375 168.445312 15.753906 170.265625 22.789062 C 172.085938 29.824219 171.039062 37.292969 167.355469 43.554688 L 113.972656 134.242188 C 110.285156 140.503906 104.261719 145.046875 97.230469 146.867188 C 90.195312 148.6875 82.726562 147.640625 76.464844 143.953125 C 70.203125 140.269531 65.664062 134.246094 63.839844 127.214844 C 62.019531 120.179688 63.066406 112.710938 66.753906 106.449219 L 120.136719 15.761719 C 123.820312 9.5 129.84375 4.957031 136.878906 3.136719 C 143.910156 1.316406 151.378906 2.363281 157.640625 6.046875 Z M 157.640625 6.046875 " clip-rule="nonzero"/></clipPath><clipPath id="b0a8925448"><path d="M 0 0 L 110 0 L 110 146 L 0 146 Z M 0 0 " clip-rule="nonzero"/></clipPath><clipPath id="ede899841f"><path d="M 72.03125 -9.847656 L 119.25 17.945312 L 38.039062 155.914062 L -9.179688 128.117188 Z M 72.03125 -9.847656 " clip-rule="nonzero"/></clipPath><clipPath id="d29a246d0a"><path d="M 95.640625 4.046875 C 101.902344 7.734375 106.445312 13.753906 108.265625 20.789062 C 110.085938 27.824219 109.039062 35.292969 105.355469 41.554688 L 51.972656 132.242188 C 48.285156 138.503906 42.261719 143.046875 35.230469 144.867188 C 28.195312 146.6875 20.726562 145.640625 14.464844 141.953125 C 8.203125 138.269531 3.664062 132.246094 1.839844 125.214844 C 0.0195312 118.179688 1.066406 110.710938 4.753906 104.449219 L 58.136719 13.761719 C 61.820312 7.5 67.84375 2.957031 74.878906 1.136719 C 81.910156 -0.683594 89.378906 0.363281 95.640625 4.046875 Z M 95.640625 4.046875 " clip-rule="nonzero"/></clipPath><clipPath id="48aa1ad191"><rect x="0" width="110" y="0" height="146"/></clipPath><clipPath id="60dd26fbdc"><path d="M 7.5 2.125 L 63.949219 2.125 L 63.949219 58.574219 L 7.5 58.574219 Z M 7.5 2.125 " clip-rule="nonzero"/></clipPath><clipPath id="e2262282c3"><path d="M 35.722656 2.125 C 20.136719 2.125 7.5 14.761719 7.5 30.351562 C 7.5 45.9375 20.136719 58.574219 35.722656 58.574219 C 51.3125 58.574219 63.949219 45.9375 63.949219 30.351562 C 63.949219 14.761719 51.3125 2.125 35.722656 2.125 Z M 35.722656 2.125 " clip-rule="nonzero"/></clipPath><clipPath id="fad5326390"><path d="M 0.5 0.125 L 56.949219 0.125 L 56.949219 56.574219 L 0.5 56.574219 Z M 0.5 0.125 " clip-rule="nonzero"/></clipPath><clipPath id="affd778a12"><path d="M 28.722656 0.125 C 13.136719 0.125 0.5 12.761719 0.5 28.351562 C 0.5 43.9375 13.136719 56.574219 28.722656 56.574219 C 44.3125 56.574219 56.949219 43.9375 56.949219 28.351562 C 56.949219 12.761719 44.3125 0.125 28.722656 0.125 Z M 28.722656 0.125 " clip-rule="nonzero"/></clipPath><clipPath id="07d961ab00"><rect x="0" width="57" y="0" height="57"/></clipPath><clipPath id="02ac305821"><path d="M 20.25 16 L 51 16 L 51 44.445312 L 20.25 44.445312 Z M 20.25 16 " clip-rule="nonzero"/></clipPath></defs><g transform="matrix(1, 0, 0, 1, 181, 28)"><g clip-path="url(#cfa0efe14e)"><g fill="#ffffff" fill-opacity="1"><g transform="translate(0.253389, 69.783989)"><g><path d="M 8.296875 -42.65625 C 7.140625 -42.65625 6.160156 -43.054688 5.359375 -43.859375 C 4.554688 -44.660156 4.15625 -45.644531 4.15625 -46.8125 C 4.15625 -47.96875 4.554688 -48.945312 5.359375 -49.75 C 6.160156 -50.5625 7.140625 -50.96875 8.296875 -50.96875 C 9.421875 -50.96875 10.375 -50.5625 11.15625 -49.75 C 11.9375 -48.945312 12.328125 -47.96875 12.328125 -46.8125 C 12.328125 -45.644531 11.9375 -44.660156 11.15625 -43.859375 C 10.375 -43.054688 9.421875 -42.65625 8.296875 -42.65625 Z M 11.25 -36.703125 L 11.25 0 L 5.15625 0 L 5.15625 -36.703125 Z M 11.25 -36.703125 "/></g></g></g><g fill="#ffffff" fill-opacity="1"><g transform="translate(15.856625, 69.783989)"><g><path d="M 49.28125 -37.375 C 52.144531 -37.375 54.691406 -36.78125 56.921875 -35.59375 C 59.148438 -34.40625 60.910156 -32.628906 62.203125 -30.265625 C 63.503906 -27.898438 64.15625 -25.019531 64.15625 -21.625 L 64.15625 0 L 58.125 0 L 58.125 -20.765625 C 58.125 -24.421875 57.21875 -27.21875 55.40625 -29.15625 C 53.601562 -31.101562 51.160156 -32.078125 48.078125 -32.078125 C 44.910156 -32.078125 42.390625 -31.0625 40.515625 -29.03125 C 38.640625 -27 37.703125 -24.0625 37.703125 -20.21875 L 37.703125 0 L 31.671875 0 L 31.671875 -20.765625 C 31.671875 -24.421875 30.765625 -27.21875 28.953125 -29.15625 C 27.148438 -31.101562 24.707031 -32.078125 21.625 -32.078125 C 18.457031 -32.078125 15.9375 -31.0625 14.0625 -29.03125 C 12.1875 -27 11.25 -24.0625 11.25 -20.21875 L 11.25 0 L 5.15625 0 L 5.15625 -36.703125 L 11.25 -36.703125 L 11.25 -31.40625 C 12.457031 -33.320312 14.078125 -34.796875 16.109375 -35.828125 C 18.140625 -36.859375 20.382812 -37.375 22.84375 -37.375 C 25.914062 -37.375 28.632812 -36.679688 31 -35.296875 C 33.375 -33.910156 35.140625 -31.878906 36.296875 -29.203125 C 37.328125 -31.785156 39.023438 -33.789062 41.390625 -35.21875 C 43.753906 -36.65625 46.382812 -37.375 49.28125 -37.375 Z M 49.28125 -37.375 "/></g></g></g><g fill="#ffffff" fill-opacity="1"><g transform="translate(83.96189, 69.783989)"><g><path d="M 49.28125 -37.375 C 52.144531 -37.375 54.691406 -36.78125 56.921875 -35.59375 C 59.148438 -34.40625 60.910156 -32.628906 62.203125 -30.265625 C 63.503906 -27.898438 64.15625 -25.019531 64.15625 -21.625 L 64.15625 0 L 58.125 0 L 58.125 -20.765625 C 58.125 -24.421875 57.21875 -27.21875 55.40625 -29.15625 C 53.601562 -31.101562 51.160156 -32.078125 48.078125 -32.078125 C 44.910156 -32.078125 42.390625 -31.0625 40.515625 -29.03125 C 38.640625 -27 37.703125 -24.0625 37.703125 -20.21875 L 37.703125 0 L 31.671875 0 L 31.671875 -20.765625 C 31.671875 -24.421875 30.765625 -27.21875 28.953125 -29.15625 C 27.148438 -31.101562 24.707031 -32.078125 21.625 -32.078125 C 18.457031 -32.078125 15.9375 -31.0625 14.0625 -29.03125 C 12.1875 -27 11.25 -24.0625 11.25 -20.21875 L 11.25 0 L 5.15625 0 L 5.15625 -36.703125 L 11.25 -36.703125 L 11.25 -31.40625 C 12.457031 -33.320312 14.078125 -34.796875 16.109375 -35.828125 C 18.140625 -36.859375 20.382812 -37.375 22.84375 -37.375 C 25.914062 -37.375 28.632812 -36.679688 31 -35.296875 C 33.375 -33.910156 35.140625 -31.878906 36.296875 -29.203125 C 37.328125 -31.785156 39.023438 -33.789062 41.390625 -35.21875 C 43.753906 -36.65625 46.382812 -37.375 49.28125 -37.375 Z M 49.28125 -37.375 "/></g></g></g><g fill="#ffffff" fill-opacity="1"><g transform="translate(152.067155, 69.783989)"><g><path d="M 21.15625 0.609375 C 17.71875 0.609375 14.601562 -0.171875 11.8125 -1.734375 C 9.03125 -3.296875 6.84375 -5.515625 5.25 -8.390625 C 3.664062 -11.273438 2.875 -14.617188 2.875 -18.421875 C 2.875 -22.171875 3.6875 -25.484375 5.3125 -28.359375 C 6.945312 -31.242188 9.171875 -33.453125 11.984375 -34.984375 C 14.796875 -36.523438 17.945312 -37.296875 21.4375 -37.296875 C 24.914062 -37.296875 28.0625 -36.523438 30.875 -34.984375 C 33.6875 -33.453125 35.90625 -31.253906 37.53125 -28.390625 C 39.164062 -25.535156 39.984375 -22.210938 39.984375 -18.421875 C 39.984375 -14.617188 39.144531 -11.273438 37.46875 -8.390625 C 35.789062 -5.515625 33.523438 -3.296875 30.671875 -1.734375 C 27.816406 -0.171875 24.644531 0.609375 21.15625 0.609375 Z M 21.15625 -4.75 C 23.34375 -4.75 25.394531 -5.257812 27.3125 -6.28125 C 29.238281 -7.3125 30.789062 -8.851562 31.96875 -10.90625 C 33.15625 -12.96875 33.75 -15.472656 33.75 -18.421875 C 33.75 -21.367188 33.164062 -23.867188 32 -25.921875 C 30.84375 -27.972656 29.328125 -29.5 27.453125 -30.5 C 25.578125 -31.507812 23.546875 -32.015625 21.359375 -32.015625 C 19.128906 -32.015625 17.085938 -31.507812 15.234375 -30.5 C 13.378906 -29.5 11.894531 -27.972656 10.78125 -25.921875 C 9.664062 -23.867188 9.109375 -21.367188 9.109375 -18.421875 C 9.109375 -15.421875 9.65625 -12.894531 10.75 -10.84375 C 11.84375 -8.789062 13.300781 -7.257812 15.125 -6.25 C 16.957031 -5.25 18.96875 -4.75 21.15625 -4.75 Z M 21.15625 -4.75 "/></g></g></g><g fill="#ffffff" fill-opacity="1"><g transform="translate(194.055342, 69.783989)"><g><path d="M 18.8125 -5.625 L 30.203125 -36.703125 L 36.703125 -36.703125 L 22.296875 0 L 15.203125 0 L 0.796875 -36.703125 L 7.359375 -36.703125 Z M 18.8125 -5.625 "/></g></g></g><g fill="#ffffff" fill-opacity="1"><g transform="translate(230.753138, 69.783989)"><g><path d="M 2.875 -18.484375 C 2.875 -22.234375 3.632812 -25.523438 5.15625 -28.359375 C 6.675781 -31.191406 8.765625 -33.390625 11.421875 -34.953125 C 14.078125 -36.515625 17.035156 -37.296875 20.296875 -37.296875 C 23.503906 -37.296875 26.289062 -36.601562 28.65625 -35.21875 C 31.03125 -33.84375 32.796875 -32.101562 33.953125 -30 L 33.953125 -36.703125 L 40.109375 -36.703125 L 40.109375 0 L 33.953125 0 L 33.953125 -6.828125 C 32.742188 -4.679688 30.945312 -2.90625 28.5625 -1.5 C 26.175781 -0.09375 23.394531 0.609375 20.21875 0.609375 C 16.957031 0.609375 14.007812 -0.191406 11.375 -1.796875 C 8.75 -3.410156 6.675781 -5.664062 5.15625 -8.5625 C 3.632812 -11.46875 2.875 -14.773438 2.875 -18.484375 Z M 33.953125 -18.421875 C 33.953125 -21.179688 33.394531 -23.585938 32.28125 -25.640625 C 31.164062 -27.703125 29.65625 -29.28125 27.75 -30.375 C 25.851562 -31.46875 23.769531 -32.015625 21.5 -32.015625 C 19.21875 -32.015625 17.140625 -31.476562 15.265625 -30.40625 C 13.390625 -29.332031 11.894531 -27.769531 10.78125 -25.71875 C 9.664062 -23.664062 9.109375 -21.253906 9.109375 -18.484375 C 9.109375 -15.671875 9.664062 -13.222656 10.78125 -11.140625 C 11.894531 -9.066406 13.390625 -7.484375 15.265625 -6.390625 C 17.140625 -5.296875 19.21875 -4.75 21.5 -4.75 C 23.769531 -4.75 25.851562 -5.296875 27.75 -6.390625 C 29.65625 -7.484375 31.164062 -9.066406 32.28125 -11.140625 C 33.394531 -13.222656 33.953125 -15.648438 33.953125 -18.421875 Z M 33.953125 -18.421875 "/></g></g></g><g fill="#ffffff" fill-opacity="1"><g transform="translate(275.152136, 69.783989)"><g><path d="M 12.59375 -31.671875 L 12.59375 -10.046875 C 12.59375 -8.253906 12.96875 -6.988281 13.71875 -6.25 C 14.476562 -5.519531 15.800781 -5.15625 17.6875 -5.15625 L 22.171875 -5.15625 L 22.171875 0 L 16.671875 0 C 13.273438 0 10.726562 -0.78125 9.03125 -2.34375 C 7.34375 -3.90625 6.5 -6.472656 6.5 -10.046875 L 6.5 -31.671875 L 1.734375 -31.671875 L 1.734375 -36.703125 L 6.5 -36.703125 L 6.5 -45.9375 L 12.59375 -45.9375 L 12.59375 -36.703125 L 22.171875 -36.703125 L 22.171875 -31.671875 Z M 12.59375 -31.671875 "/></g></g></g><g fill="#ffffff" fill-opacity="1"><g transform="translate(298.657483, 69.783989)"><g><path d="M 8.296875 -42.65625 C 7.140625 -42.65625 6.160156 -43.054688 5.359375 -43.859375 C 4.554688 -44.660156 4.15625 -45.644531 4.15625 -46.8125 C 4.15625 -47.96875 4.554688 -48.945312 5.359375 -49.75 C 6.160156 -50.5625 7.140625 -50.96875 8.296875 -50.96875 C 9.421875 -50.96875 10.375 -50.5625 11.15625 -49.75 C 11.9375 -48.945312 12.328125 -47.96875 12.328125 -46.8125 C 12.328125 -45.644531 11.9375 -44.660156 11.15625 -43.859375 C 10.375 -43.054688 9.421875 -42.65625 8.296875 -42.65625 Z M 11.25 -36.703125 L 11.25 0 L 5.15625 0 L 5.15625 -36.703125 Z M 11.25 -36.703125 "/></g></g></g><g fill="#ffffff" fill-opacity="1"><g transform="translate(314.260719, 69.783989)"><g><path d="M 18.8125 -5.625 L 30.203125 -36.703125 L 36.703125 -36.703125 L 22.296875 0 L 15.203125 0 L 0.796875 -36.703125 L 7.359375 -36.703125 Z M 18.8125 -5.625 "/></g></g></g><g fill="#ffffff" fill-opacity="1"><g transform="translate(350.958569, 69.783989)"><g><path d="M 15.609375 -47.015625 L 15.609375 0 L 4.15625 0 L 4.15625 -47.015625 Z M 15.609375 -47.015625 "/></g></g></g><g fill="#ffffff" fill-opacity="1"><g transform="translate(369.843186, 69.783989)"><g><path d="M 26.921875 -37.765625 C 31.296875 -37.765625 34.785156 -36.347656 37.390625 -33.515625 C 40.003906 -30.679688 41.3125 -26.785156 41.3125 -21.828125 L 41.3125 0 L 29.9375 0 L 29.9375 -20.296875 C 29.9375 -22.796875 29.285156 -24.734375 27.984375 -26.109375 C 26.691406 -27.492188 24.953125 -28.1875 22.765625 -28.1875 C 20.578125 -28.1875 18.835938 -27.492188 17.546875 -26.109375 C 16.253906 -24.734375 15.609375 -22.796875 15.609375 -20.296875 L 15.609375 0 L 4.15625 0 L 4.15625 -37.375 L 15.609375 -37.375 L 15.609375 -32.40625 C 16.765625 -34.0625 18.320312 -35.367188 20.28125 -36.328125 C 22.25 -37.285156 24.460938 -37.765625 26.921875 -37.765625 Z M 26.921875 -37.765625 "/></g></g></g><g fill="#ffffff" fill-opacity="1"><g transform="translate(414.108242, 69.783989)"><g><path d="M 20.96875 -10.71875 L 29.0625 -37.375 L 41.25 -37.375 L 28 0 L 13.859375 0 L 0.609375 -37.375 L 12.859375 -37.375 Z M 20.96875 -10.71875 "/></g></g></g><g fill="#ffffff" fill-opacity="1"><g transform="translate(455.158895, 69.783989)"><g><path d="M 39.375 -19.28125 C 39.375 -18.21875 39.304688 -17.101562 39.171875 -15.9375 L 13.265625 -15.9375 C 13.441406 -13.613281 14.1875 -11.835938 15.5 -10.609375 C 16.820312 -9.378906 18.441406 -8.765625 20.359375 -8.765625 C 23.210938 -8.765625 25.195312 -9.972656 26.3125 -12.390625 L 38.5 -12.390625 C 37.875 -9.929688 36.75 -7.71875 35.125 -5.75 C 33.5 -3.789062 31.457031 -2.253906 29 -1.140625 C 26.539062 -0.0234375 23.796875 0.53125 20.765625 0.53125 C 17.097656 0.53125 13.835938 -0.25 10.984375 -1.8125 C 8.128906 -3.375 5.894531 -5.601562 4.28125 -8.5 C 2.675781 -11.40625 1.875 -14.800781 1.875 -18.6875 C 1.875 -22.570312 2.664062 -25.960938 4.25 -28.859375 C 5.832031 -31.765625 8.050781 -34 10.90625 -35.5625 C 13.769531 -37.125 17.054688 -37.90625 20.765625 -37.90625 C 24.378906 -37.90625 27.59375 -37.144531 30.40625 -35.625 C 33.21875 -34.101562 35.414062 -31.9375 37 -29.125 C 38.582031 -26.3125 39.375 -23.03125 39.375 -19.28125 Z M 27.65625 -22.296875 C 27.65625 -24.265625 26.984375 -25.828125 25.640625 -26.984375 C 24.304688 -28.148438 22.632812 -28.734375 20.625 -28.734375 C 18.707031 -28.734375 17.085938 -28.171875 15.765625 -27.046875 C 14.453125 -25.929688 13.640625 -24.347656 13.328125 -22.296875 Z M 27.65625 -22.296875 "/></g></g></g><g fill="#ffffff" fill-opacity="1"><g transform="translate(495.539873, 69.783989)"><g><path d="M 19.359375 0.53125 C 16.097656 0.53125 13.191406 -0.0234375 10.640625 -1.140625 C 8.097656 -2.253906 6.085938 -3.78125 4.609375 -5.71875 C 3.140625 -7.664062 2.316406 -9.84375 2.140625 -12.25 L 13.453125 -12.25 C 13.585938 -10.957031 14.191406 -9.910156 15.265625 -9.109375 C 16.335938 -8.304688 17.65625 -7.90625 19.21875 -7.90625 C 20.644531 -7.90625 21.75 -8.179688 22.53125 -8.734375 C 23.3125 -9.296875 23.703125 -10.023438 23.703125 -10.921875 C 23.703125 -11.984375 23.144531 -12.769531 22.03125 -13.28125 C 20.914062 -13.800781 19.109375 -14.375 16.609375 -15 C 13.929688 -15.625 11.695312 -16.28125 9.90625 -16.96875 C 8.125 -17.664062 6.582031 -18.757812 5.28125 -20.25 C 3.988281 -21.75 3.34375 -23.769531 3.34375 -26.3125 C 3.34375 -28.457031 3.929688 -30.410156 5.109375 -32.171875 C 6.296875 -33.941406 8.039062 -35.335938 10.34375 -36.359375 C 12.644531 -37.390625 15.378906 -37.90625 18.546875 -37.90625 C 23.234375 -37.90625 26.925781 -36.742188 29.625 -34.421875 C 32.332031 -32.097656 33.882812 -29.019531 34.28125 -25.1875 L 23.703125 -25.1875 C 23.523438 -26.476562 22.957031 -27.503906 22 -28.265625 C 21.039062 -29.023438 19.78125 -29.40625 18.21875 -29.40625 C 16.875 -29.40625 15.84375 -29.144531 15.125 -28.625 C 14.414062 -28.113281 14.0625 -27.410156 14.0625 -26.515625 C 14.0625 -25.441406 14.628906 -24.640625 15.765625 -24.109375 C 16.910156 -23.578125 18.6875 -23.039062 21.09375 -22.5 C 23.863281 -21.789062 26.117188 -21.085938 27.859375 -20.390625 C 29.597656 -19.703125 31.125 -18.585938 32.4375 -17.046875 C 33.757812 -15.503906 34.441406 -13.4375 34.484375 -10.84375 C 34.484375 -8.65625 33.867188 -6.703125 32.640625 -4.984375 C 31.421875 -3.265625 29.660156 -1.914062 27.359375 -0.9375 C 25.054688 0.0390625 22.390625 0.53125 19.359375 0.53125 Z M 19.359375 0.53125 "/></g></g></g><g fill="#ffffff" fill-opacity="1"><g transform="translate(532.036774, 69.783989)"><g><path d="M 24.984375 -9.703125 L 24.984375 0 L 19.15625 0 C 15 0 11.757812 -1.015625 9.4375 -3.046875 C 7.113281 -5.078125 5.953125 -8.390625 5.953125 -12.984375 L 5.953125 -27.859375 L 1.40625 -27.859375 L 1.40625 -37.375 L 5.953125 -37.375 L 5.953125 -46.46875 L 17.40625 -46.46875 L 17.40625 -37.375 L 24.90625 -37.375 L 24.90625 -27.859375 L 17.40625 -27.859375 L 17.40625 -12.859375 C 17.40625 -11.742188 17.671875 -10.9375 18.203125 -10.4375 C 18.742188 -9.945312 19.640625 -9.703125 20.890625 -9.703125 Z M 24.984375 -9.703125 "/></g></g></g></g></g><g clip-path="url(#80ee6878fd)"><g clip-path="url(#4e36985517)"><g clip-path="url(#824afad6bc)"><g transform="matrix(1, 0, 0, 1, 62, 2)"><g clip-path="url(#48aa1ad191)"><g clip-path="url(#b0a8925448)"><g clip-path="url(#ede899841f)"><g clip-path="url(#d29a246d0a)"><path fill="#ffffff" d="M 72.03125 -9.847656 L 119.25 17.945312 L 38.039062 155.914062 L -9.179688 128.117188 Z M 72.03125 -9.847656 " fill-opacity="1" fill-rule="nonzero"/></g></g></g></g></g></g></g></g><g clip-path="url(#60dd26fbdc)"><g clip-path="url(#e2262282c3)"><g transform="matrix(1, 0, 0, 1, 7, 2)"><g clip-path="url(#07d961ab00)"><g clip-path="url(#fad5326390)"><g clip-path="url(#affd778a12)"><path fill="#ffffff" d="M 0.5 0.125 L 56.949219 0.125 L 56.949219 56.574219 L 0.5 56.574219 Z M 0.5 0.125 " fill-opacity="1" fill-rule="nonzero"/></g></g></g></g></g></g><g clip-path="url(#02ac305821)"><path fill="#071a3d" d="M 48.949219 31.007812 L 47.730469 31.007812 L 47.730469 43.484375 C 47.71875 43.65625 47.675781 43.816406 47.601562 43.972656 C 47.527344 44.125 47.429688 44.257812 47.300781 44.371094 C 47.175781 44.484375 47.03125 44.570312 46.871094 44.625 C 46.710938 44.683594 46.542969 44.707031 46.375 44.699219 L 39.183594 44.699219 L 39.183594 38.796875 C 39.191406 38.332031 39.105469 37.878906 38.929688 37.445312 C 38.757812 37.011719 38.503906 36.628906 38.175781 36.296875 C 37.847656 35.964844 37.46875 35.707031 37.035156 35.527344 C 36.605469 35.347656 36.15625 35.257812 35.6875 35.257812 C 35.21875 35.257812 34.769531 35.347656 34.339844 35.527344 C 33.910156 35.707031 33.527344 35.964844 33.199219 36.296875 C 32.871094 36.628906 32.621094 37.011719 32.445312 37.445312 C 32.269531 37.878906 32.1875 38.332031 32.191406 38.796875 L 32.191406 44.699219 L 25 44.699219 C 24.832031 44.707031 24.667969 44.683594 24.507812 44.625 C 24.347656 44.570312 24.203125 44.484375 24.078125 44.371094 C 23.949219 44.257812 23.851562 44.125 23.777344 43.972656 C 23.703125 43.820312 23.660156 43.660156 23.652344 43.492188 L 23.652344 31.007812 L 22.429688 31.007812 C 21.074219 31.007812 20.339844 29.730469 21.226562 28.914062 L 34.605469 16.546875 C 34.773438 16.402344 34.960938 16.292969 35.167969 16.21875 C 35.375 16.144531 35.589844 16.105469 35.8125 16.105469 C 36.03125 16.105469 36.246094 16.144531 36.453125 16.222656 C 36.660156 16.296875 36.847656 16.40625 37.015625 16.550781 C 38.609375 18.054688 40.207031 19.554688 41.804688 21.058594 L 41.804688 17.25 C 41.804688 17.097656 41.835938 16.953125 41.894531 16.8125 C 41.949219 16.671875 42.035156 16.546875 42.140625 16.441406 C 42.25 16.332031 42.371094 16.25 42.511719 16.191406 C 42.652344 16.132812 42.800781 16.105469 42.953125 16.105469 L 45.117188 16.105469 C 45.269531 16.105469 45.417969 16.132812 45.558594 16.191406 C 45.699219 16.25 45.820312 16.332031 45.929688 16.441406 C 46.035156 16.546875 46.117188 16.671875 46.175781 16.8125 C 46.234375 16.953125 46.265625 17.097656 46.265625 17.25 L 46.265625 25.25 C 47.5625 26.472656 48.859375 27.695312 50.160156 28.917969 C 51.03125 29.742188 50.296875 31.007812 48.949219 31.007812 Z M 48.949219 31.007812 " fill-opacity="1" fill-rule="nonzero"/></g></svg>