<svg xmlns="http://www.w3.org/2000/svg" xmlns:xlink="http://www.w3.org/1999/xlink" width="1000" zoomAndPan="magnify" viewBox="0 0 750 149.999998" height="200" preserveAspectRatio="xMidYMid meet" version="1.0"><defs><g/><clipPath id="ab8598e01b"><rect x="0" width="656" y="0" height="111"/></clipPath><clipPath id="e56e24caef"><path d="M 643.394531 48.890625 L 707 48.890625 L 707 102.890625 L 643.394531 102.890625 Z M 643.394531 48.890625 " clip-rule="nonzero"/></clipPath><clipPath id="6c0a5bf45f"><path d="M 664 48.890625 L 728 48.890625 L 728 102.890625 L 664 102.890625 Z M 664 48.890625 " clip-rule="nonzero"/></clipPath><clipPath id="feff9d2249"><path d="M 685 48.890625 L 749.894531 48.890625 L 749.894531 102.890625 L 685 102.890625 Z M 685 48.890625 " clip-rule="nonzero"/></clipPath></defs><g transform="matrix(1, 0, 0, 1, 0, 19)"><g clip-path="url(#ab8598e01b)"><g fill="#ffffff" fill-opacity="1"><g transform="translate(-4.499993, 82.629014)"><g><path d="M 9.828125 -50.453125 C 8.453125 -50.453125 7.285156 -50.925781 6.328125 -51.875 C 5.378906 -52.820312 4.90625 -53.984375 4.90625 -55.359375 C 4.90625 -56.734375 5.378906 -57.894531 6.328125 -58.84375 C 7.285156 -59.800781 8.453125 -60.28125 9.828125 -60.28125 C 11.140625 -60.28125 12.257812 -59.800781 13.1875 -58.84375 C 14.113281 -57.894531 14.578125 -56.734375 14.578125 -55.359375 C 14.578125 -53.984375 14.113281 -52.820312 13.1875 -51.875 C 12.257812 -50.925781 11.140625 -50.453125 9.828125 -50.453125 Z M 13.3125 -43.40625 L 13.3125 0 L 6.09375 0 L 6.09375 -43.40625 Z M 13.3125 -43.40625 "/></g></g></g><g fill="#ffffff" fill-opacity="1"><g transform="translate(13.955743, 82.629014)"><g><path d="M 58.296875 -44.203125 C 61.671875 -44.203125 64.675781 -43.5 67.3125 -42.09375 C 69.957031 -40.695312 72.046875 -38.597656 73.578125 -35.796875 C 75.109375 -33.003906 75.875 -29.597656 75.875 -25.578125 L 75.875 0 L 68.75 0 L 68.75 -24.546875 C 68.75 -28.878906 67.675781 -32.191406 65.53125 -34.484375 C 63.394531 -36.785156 60.507812 -37.9375 56.875 -37.9375 C 53.125 -37.9375 50.140625 -36.734375 47.921875 -34.328125 C 45.703125 -31.929688 44.59375 -28.460938 44.59375 -23.921875 L 44.59375 0 L 37.46875 0 L 37.46875 -24.546875 C 37.46875 -28.878906 36.394531 -32.191406 34.25 -34.484375 C 32.113281 -36.785156 29.222656 -37.9375 25.578125 -37.9375 C 21.828125 -37.9375 18.84375 -36.734375 16.625 -34.328125 C 14.414062 -31.929688 13.3125 -28.460938 13.3125 -23.921875 L 13.3125 0 L 6.09375 0 L 6.09375 -43.40625 L 13.3125 -43.40625 L 13.3125 -37.140625 C 14.726562 -39.410156 16.640625 -41.15625 19.046875 -42.375 C 21.453125 -43.59375 24.109375 -44.203125 27.015625 -44.203125 C 30.648438 -44.203125 33.867188 -43.378906 36.671875 -41.734375 C 39.472656 -40.097656 41.554688 -37.695312 42.921875 -34.53125 C 44.140625 -37.59375 46.144531 -39.96875 48.9375 -41.65625 C 51.738281 -43.351562 54.859375 -44.203125 58.296875 -44.203125 Z M 58.296875 -44.203125 "/></g></g></g><g fill="#ffffff" fill-opacity="1"><g transform="translate(94.511623, 82.629014)"><g><path d="M 58.296875 -44.203125 C 61.671875 -44.203125 64.675781 -43.5 67.3125 -42.09375 C 69.957031 -40.695312 72.046875 -38.597656 73.578125 -35.796875 C 75.109375 -33.003906 75.875 -29.597656 75.875 -25.578125 L 75.875 0 L 68.75 0 L 68.75 -24.546875 C 68.75 -28.878906 67.675781 -32.191406 65.53125 -34.484375 C 63.394531 -36.785156 60.507812 -37.9375 56.875 -37.9375 C 53.125 -37.9375 50.140625 -36.734375 47.921875 -34.328125 C 45.703125 -31.929688 44.59375 -28.460938 44.59375 -23.921875 L 44.59375 0 L 37.46875 0 L 37.46875 -24.546875 C 37.46875 -28.878906 36.394531 -32.191406 34.25 -34.484375 C 32.113281 -36.785156 29.222656 -37.9375 25.578125 -37.9375 C 21.828125 -37.9375 18.84375 -36.734375 16.625 -34.328125 C 14.414062 -31.929688 13.3125 -28.460938 13.3125 -23.921875 L 13.3125 0 L 6.09375 0 L 6.09375 -43.40625 L 13.3125 -43.40625 L 13.3125 -37.140625 C 14.726562 -39.410156 16.640625 -41.15625 19.046875 -42.375 C 21.453125 -43.59375 24.109375 -44.203125 27.015625 -44.203125 C 30.648438 -44.203125 33.867188 -43.378906 36.671875 -41.734375 C 39.472656 -40.097656 41.554688 -37.695312 42.921875 -34.53125 C 44.140625 -37.59375 46.144531 -39.96875 48.9375 -41.65625 C 51.738281 -43.351562 54.859375 -44.203125 58.296875 -44.203125 Z M 58.296875 -44.203125 "/></g></g></g><g fill="#ffffff" fill-opacity="1"><g transform="translate(175.067502, 82.629014)"><g><path d="M 25.03125 0.71875 C 20.957031 0.71875 17.269531 -0.203125 13.96875 -2.046875 C 10.675781 -3.898438 8.09375 -6.53125 6.21875 -9.9375 C 4.34375 -13.34375 3.40625 -17.289062 3.40625 -21.78125 C 3.40625 -26.21875 4.367188 -30.140625 6.296875 -33.546875 C 8.222656 -36.953125 10.847656 -39.5625 14.171875 -41.375 C 17.503906 -43.195312 21.226562 -44.109375 25.34375 -44.109375 C 29.457031 -44.109375 33.175781 -43.195312 36.5 -41.375 C 39.832031 -39.5625 42.460938 -36.960938 44.390625 -33.578125 C 46.316406 -30.203125 47.28125 -26.269531 47.28125 -21.78125 C 47.28125 -17.289062 46.289062 -13.34375 44.3125 -9.9375 C 42.332031 -6.53125 39.648438 -3.898438 36.265625 -2.046875 C 32.890625 -0.203125 29.144531 0.71875 25.03125 0.71875 Z M 25.03125 -5.625 C 27.613281 -5.625 30.039062 -6.226562 32.3125 -7.4375 C 34.582031 -8.65625 36.414062 -10.476562 37.8125 -12.90625 C 39.21875 -15.332031 39.921875 -18.289062 39.921875 -21.78125 C 39.921875 -25.269531 39.234375 -28.226562 37.859375 -30.65625 C 36.484375 -33.082031 34.6875 -34.890625 32.46875 -36.078125 C 30.25 -37.265625 27.847656 -37.859375 25.265625 -37.859375 C 22.628906 -37.859375 20.210938 -37.265625 18.015625 -36.078125 C 15.828125 -34.890625 14.070312 -33.082031 12.75 -30.65625 C 11.425781 -28.226562 10.765625 -25.269531 10.765625 -21.78125 C 10.765625 -18.238281 11.410156 -15.253906 12.703125 -12.828125 C 14.003906 -10.398438 15.734375 -8.59375 17.890625 -7.40625 C 20.054688 -6.21875 22.4375 -5.625 25.03125 -5.625 Z M 25.03125 -5.625 "/></g></g></g><g fill="#ffffff" fill-opacity="1"><g transform="translate(224.731719, 82.629014)"><g><path d="M 22.25 -6.65625 L 35.71875 -43.40625 L 43.40625 -43.40625 L 26.375 0 L 17.984375 0 L 0.953125 -43.40625 L 8.71875 -43.40625 Z M 22.25 -6.65625 "/></g></g></g><g fill="#ffffff" fill-opacity="1"><g transform="translate(268.138403, 82.629014)"><g><path d="M 3.40625 -21.859375 C 3.40625 -26.296875 4.300781 -30.191406 6.09375 -33.546875 C 7.894531 -36.898438 10.363281 -39.5 13.5 -41.34375 C 16.644531 -43.1875 20.144531 -44.109375 24 -44.109375 C 27.800781 -44.109375 31.097656 -43.289062 33.890625 -41.65625 C 36.691406 -40.019531 38.78125 -37.960938 40.15625 -35.484375 L 40.15625 -43.40625 L 47.4375 -43.40625 L 47.4375 0 L 40.15625 0 L 40.15625 -8.078125 C 38.726562 -5.546875 36.601562 -3.445312 33.78125 -1.78125 C 30.957031 -0.113281 27.671875 0.71875 23.921875 0.71875 C 20.066406 0.71875 16.582031 -0.226562 13.46875 -2.125 C 10.351562 -4.03125 7.894531 -6.695312 6.09375 -10.125 C 4.300781 -13.5625 3.40625 -17.472656 3.40625 -21.859375 Z M 40.15625 -21.78125 C 40.15625 -25.050781 39.492188 -27.898438 38.171875 -30.328125 C 36.859375 -32.765625 35.078125 -34.628906 32.828125 -35.921875 C 30.585938 -37.210938 28.117188 -37.859375 25.421875 -37.859375 C 22.734375 -37.859375 20.28125 -37.222656 18.0625 -35.953125 C 15.84375 -34.691406 14.070312 -32.84375 12.75 -30.40625 C 11.425781 -27.976562 10.765625 -25.128906 10.765625 -21.859375 C 10.765625 -18.535156 11.425781 -15.644531 12.75 -13.1875 C 14.070312 -10.726562 15.84375 -8.851562 18.0625 -7.5625 C 20.28125 -6.269531 22.734375 -5.625 25.421875 -5.625 C 28.117188 -5.625 30.585938 -6.269531 32.828125 -7.5625 C 35.078125 -8.851562 36.859375 -10.726562 38.171875 -13.1875 C 39.492188 -15.644531 40.15625 -18.507812 40.15625 -21.78125 Z M 40.15625 -21.78125 "/></g></g></g><g fill="#ffffff" fill-opacity="1"><g transform="translate(320.654185, 82.629014)"><g><path d="M 14.890625 -37.46875 L 14.890625 -11.875 C 14.890625 -9.769531 15.335938 -8.28125 16.234375 -7.40625 C 17.128906 -6.53125 18.6875 -6.09375 20.90625 -6.09375 L 26.21875 -6.09375 L 26.21875 0 L 19.71875 0 C 15.707031 0 12.695312 -0.921875 10.6875 -2.765625 C 8.6875 -4.617188 7.6875 -7.65625 7.6875 -11.875 L 7.6875 -37.46875 L 2.0625 -37.46875 L 2.0625 -43.40625 L 7.6875 -43.40625 L 7.6875 -54.328125 L 14.890625 -54.328125 L 14.890625 -43.40625 L 26.21875 -43.40625 L 26.21875 -37.46875 Z M 14.890625 -37.46875 "/></g></g></g><g fill="#ffffff" fill-opacity="1"><g transform="translate(348.456628, 82.629014)"><g><path d="M 9.828125 -50.453125 C 8.453125 -50.453125 7.285156 -50.925781 6.328125 -51.875 C 5.378906 -52.820312 4.90625 -53.984375 4.90625 -55.359375 C 4.90625 -56.734375 5.378906 -57.894531 6.328125 -58.84375 C 7.285156 -59.800781 8.453125 -60.28125 9.828125 -60.28125 C 11.140625 -60.28125 12.257812 -59.800781 13.1875 -58.84375 C 14.113281 -57.894531 14.578125 -56.734375 14.578125 -55.359375 C 14.578125 -53.984375 14.113281 -52.820312 13.1875 -51.875 C 12.257812 -50.925781 11.140625 -50.453125 9.828125 -50.453125 Z M 13.3125 -43.40625 L 13.3125 0 L 6.09375 0 L 6.09375 -43.40625 Z M 13.3125 -43.40625 "/></g></g></g><g fill="#ffffff" fill-opacity="1"><g transform="translate(366.912352, 82.629014)"><g><path d="M 22.25 -6.65625 L 35.71875 -43.40625 L 43.40625 -43.40625 L 26.375 0 L 17.984375 0 L 0.953125 -43.40625 L 8.71875 -43.40625 Z M 22.25 -6.65625 "/></g></g></g><g fill="#ffffff" fill-opacity="1"><g transform="translate(410.330185, 82.629014)"><g><path d="M 18.453125 -55.59375 L 18.453125 0 L 4.90625 0 L 4.90625 -55.59375 Z M 18.453125 -55.59375 "/></g></g></g><g fill="#ffffff" fill-opacity="1"><g transform="translate(432.667175, 82.629014)"><g><path d="M 31.84375 -44.671875 C 37.019531 -44.671875 41.148438 -42.992188 44.234375 -39.640625 C 47.328125 -36.285156 48.875 -31.675781 48.875 -25.8125 L 48.875 0 L 35.40625 0 L 35.40625 -24 C 35.40625 -26.957031 34.640625 -29.253906 33.109375 -30.890625 C 31.578125 -32.523438 29.515625 -33.34375 26.921875 -33.34375 C 24.335938 -33.34375 22.28125 -32.523438 20.75 -30.890625 C 19.21875 -29.253906 18.453125 -26.957031 18.453125 -24 L 18.453125 0 L 4.90625 0 L 4.90625 -44.203125 L 18.453125 -44.203125 L 18.453125 -38.328125 C 19.828125 -40.285156 21.675781 -41.832031 24 -42.96875 C 26.320312 -44.101562 28.9375 -44.671875 31.84375 -44.671875 Z M 31.84375 -44.671875 "/></g></g></g><g fill="#ffffff" fill-opacity="1"><g transform="translate(485.024524, 82.629014)"><g><path d="M 24.796875 -12.671875 L 34.375 -44.203125 L 48.796875 -44.203125 L 33.109375 0 L 16.390625 0 L 0.71875 -44.203125 L 15.203125 -44.203125 Z M 24.796875 -12.671875 "/></g></g></g><g fill="#ffffff" fill-opacity="1"><g transform="translate(533.579818, 82.629014)"><g><path d="M 46.578125 -22.8125 C 46.578125 -21.539062 46.492188 -20.21875 46.328125 -18.84375 L 15.6875 -18.84375 C 15.894531 -16.101562 16.773438 -14.003906 18.328125 -12.546875 C 19.890625 -11.097656 21.804688 -10.375 24.078125 -10.375 C 27.453125 -10.375 29.800781 -11.800781 31.125 -14.65625 L 45.546875 -14.65625 C 44.804688 -11.75 43.472656 -9.132812 41.546875 -6.8125 C 39.617188 -4.488281 37.203125 -2.664062 34.296875 -1.34375 C 31.390625 -0.0195312 28.140625 0.640625 24.546875 0.640625 C 20.222656 0.640625 16.367188 -0.28125 12.984375 -2.125 C 9.609375 -3.976562 6.96875 -6.617188 5.0625 -10.046875 C 3.164062 -13.484375 2.21875 -17.5 2.21875 -22.09375 C 2.21875 -26.6875 3.15625 -30.695312 5.03125 -34.125 C 6.90625 -37.5625 9.53125 -40.203125 12.90625 -42.046875 C 16.289062 -43.898438 20.171875 -44.828125 24.546875 -44.828125 C 28.828125 -44.828125 32.628906 -43.925781 35.953125 -42.125 C 39.285156 -40.332031 41.890625 -37.773438 43.765625 -34.453125 C 45.640625 -31.128906 46.578125 -27.25 46.578125 -22.8125 Z M 32.703125 -26.375 C 32.703125 -28.695312 31.910156 -30.546875 30.328125 -31.921875 C 28.742188 -33.296875 26.765625 -33.984375 24.390625 -33.984375 C 22.117188 -33.984375 20.203125 -33.320312 18.640625 -32 C 17.085938 -30.675781 16.128906 -28.800781 15.765625 -26.375 Z M 32.703125 -26.375 "/></g></g></g><g fill="#ffffff" fill-opacity="1"><g transform="translate(581.343019, 82.629014)"><g><path d="M 22.890625 0.640625 C 19.035156 0.640625 15.601562 -0.0195312 12.59375 -1.34375 C 9.582031 -2.664062 7.203125 -4.472656 5.453125 -6.765625 C 3.710938 -9.066406 2.738281 -11.644531 2.53125 -14.5 L 15.921875 -14.5 C 16.078125 -12.96875 16.785156 -11.722656 18.046875 -10.765625 C 19.316406 -9.816406 20.878906 -9.34375 22.734375 -9.34375 C 24.421875 -9.34375 25.722656 -9.671875 26.640625 -10.328125 C 27.566406 -10.992188 28.03125 -11.851562 28.03125 -12.90625 C 28.03125 -14.175781 27.367188 -15.113281 26.046875 -15.71875 C 24.734375 -16.320312 22.597656 -16.992188 19.640625 -17.734375 C 16.472656 -18.472656 13.832031 -19.253906 11.71875 -20.078125 C 9.601562 -20.898438 7.78125 -22.191406 6.25 -23.953125 C 4.71875 -25.722656 3.953125 -28.113281 3.953125 -31.125 C 3.953125 -33.65625 4.648438 -35.960938 6.046875 -38.046875 C 7.453125 -40.140625 9.515625 -41.789062 12.234375 -43 C 14.953125 -44.21875 18.1875 -44.828125 21.9375 -44.828125 C 27.476562 -44.828125 31.847656 -43.453125 35.046875 -40.703125 C 38.242188 -37.960938 40.078125 -34.320312 40.546875 -29.78125 L 28.03125 -29.78125 C 27.820312 -31.3125 27.148438 -32.523438 26.015625 -33.421875 C 24.878906 -34.316406 23.390625 -34.765625 21.546875 -34.765625 C 19.960938 -34.765625 18.742188 -34.460938 17.890625 -33.859375 C 17.046875 -33.253906 16.625 -32.421875 16.625 -31.359375 C 16.625 -30.097656 17.296875 -29.148438 18.640625 -28.515625 C 19.992188 -27.878906 22.097656 -27.242188 24.953125 -26.609375 C 28.222656 -25.765625 30.882812 -24.929688 32.9375 -24.109375 C 35 -23.296875 36.804688 -21.976562 38.359375 -20.15625 C 39.921875 -18.332031 40.734375 -15.890625 40.796875 -12.828125 C 40.796875 -10.242188 40.066406 -7.929688 38.609375 -5.890625 C 37.160156 -3.859375 35.078125 -2.257812 32.359375 -1.09375 C 29.640625 0.0625 26.484375 0.640625 22.890625 0.640625 Z M 22.890625 0.640625 "/></g></g></g><g fill="#ffffff" fill-opacity="1"><g transform="translate(624.512072, 82.629014)"><g><path d="M 29.546875 -11.484375 L 29.546875 0 L 22.65625 0 C 17.738281 0 13.90625 -1.195312 11.15625 -3.59375 C 8.414062 -6 7.046875 -9.921875 7.046875 -15.359375 L 7.046875 -32.953125 L 1.65625 -32.953125 L 1.65625 -44.203125 L 7.046875 -44.203125 L 7.046875 -54.96875 L 20.59375 -54.96875 L 20.59375 -44.203125 L 29.46875 -44.203125 L 29.46875 -32.953125 L 20.59375 -32.953125 L 20.59375 -15.203125 C 20.59375 -13.890625 20.910156 -12.941406 21.546875 -12.359375 C 22.179688 -11.773438 23.238281 -11.484375 24.71875 -11.484375 Z M 29.546875 -11.484375 "/></g></g></g></g></g><path fill="#ffffff" d="M 738.40625 85.453125 L 731.472656 85.453125 L 731.472656 78.519531 L 738.40625 78.519531 L 738.40625 85.453125 " fill-opacity="1" fill-rule="nonzero"/><path fill="#ffffff" d="M 747.445312 85.453125 L 740.515625 85.453125 L 740.515625 78.519531 L 747.445312 78.519531 L 747.445312 85.453125 " fill-opacity="1" fill-rule="nonzero"/><path fill="#ffffff" d="M 738.40625 94.496094 L 731.472656 94.496094 L 731.472656 87.5625 L 738.40625 87.5625 L 738.40625 94.496094 " fill-opacity="1" fill-rule="nonzero"/><path fill="#ffffff" d="M 747.445312 94.496094 L 740.515625 94.496094 L 740.515625 87.5625 L 747.445312 87.5625 L 747.445312 94.496094 " fill-opacity="1" fill-rule="nonzero"/><g clip-path="url(#e56e24caef)"><path fill="#ffffff" d="M 701.738281 63.359375 L 706.710938 58.386719 L 697.21875 48.894531 L 643.394531 102.722656 L 653.339844 102.722656 L 697.21875 58.839844 L 701.738281 63.359375 " fill-opacity="1" fill-rule="nonzero"/></g><g clip-path="url(#6c0a5bf45f)"><path fill="#ffffff" d="M 722.859375 63.359375 L 727.832031 58.386719 L 718.339844 48.894531 L 664.515625 102.722656 L 674.457031 102.722656 L 718.339844 58.839844 L 722.859375 63.359375 " fill-opacity="1" fill-rule="nonzero"/></g><g clip-path="url(#feff9d2249)"><path fill="#ffffff" d="M 745.027344 64.40625 L 750 59.433594 L 739.460938 48.894531 L 685.632812 102.722656 L 695.578125 102.722656 L 739.460938 58.839844 L 745.027344 64.40625 " fill-opacity="1" fill-rule="nonzero"/></g></svg>